<svg xmlns="http://www.w3.org/2000/svg" width="93" height="93"><g><defs><linearGradient id="idL9gMQdU78g203054857" x1="0.7118852406942495" x2="0.2881147593057505" y1="1" y2="0"><stop offset="0" stop-color="rgb(210,163,116)" stop-opacity="1"></stop><stop offset="1" stop-color="rgb(222,186,148)" stop-opacity="1"></stop></linearGradient></defs><path d="M 52.193 43.387 C 53.163 44.457 54.032 45.858 53.662 46.228 C 53.291 46.599 52.158 45.928 51.291 45.06 C 50.421 44.191 48.35 53.415 48.148 53.883 C 48.001 54.234 45.584 56.996 44.321 59.629 C 43.903 60.508 43.961 63.152 43.803 63.31 C 43.167 63.946 42.368 63.877 40.627 62.338 C 38.891 60.799 37.988 69.949 40.06 71.394 C 43.601 73.864 50.688 83.695 60.043 83.695 C 70.868 83.695 80.895 72.399 80.895 64.108 C 80.895 55.822 78.463 52.675 78.621 45.726 C 78.755 39.841 83.03 37.035 83.03 34.095 C 83.03 31.623 79.357 31.022 78.153 31.022 C 76.012 31.022 70.534 33.765 70.534 40.98 C 70.534 43.787 69.729 46.328 66.86 46.328 C 63.989 46.328 60.778 42.381 58.84 39.309" fill="url(#idL9gMQdU78g203054857)"></path></g><g><defs><linearGradient id="idZvj5EbGipg203054850" x1="0.7954132086460236" x2="0.2045867913539764" y1="1" y2="5.551115123125783e-17"><stop offset="0" stop-color="rgb(210,163,116)" stop-opacity="1"></stop><stop offset="1" stop-color="rgb(222,186,148)" stop-opacity="1"></stop></linearGradient></defs><path d="M 83.04 34.095 C 83.04 32.749 81.955 31.959 80.767 31.514 C 82.186 36.23 74.972 36.437 74.972 52.512 C 74.972 68.588 65.616 73.263 61.74 74.068 C 57.863 74.871 51.034 75.102 45.835 68.72 C 44.238 66.762 42.072 64.632 39.67 62.619 C 38.654 64.321 38.438 70.255 40.07 71.394 C 43.611 73.864 50.698 83.695 60.054 83.695 C 70.879 83.695 80.905 72.399 80.905 64.108 C 80.905 55.822 78.473 52.675 78.631 45.726 C 78.759 39.846 83.04 37.04 83.04 34.095 Z" fill="url(#idZvj5EbGipg203054850)"></path></g><g><defs><linearGradient id="idFn0sS_Ea7g-203054946" x1="0" x2="1" y1="0.1310509543252984" y2="0.8689490456747015"><stop offset="0" stop-color="rgb(210,163,116)" stop-opacity="1"></stop><stop offset="1" stop-color="rgb(222,186,148)" stop-opacity="1"></stop></linearGradient></defs><path d="M 40.633 62.338 C 38.896 60.799 34.783 56.423 32.111 54.283 C 29.437 52.143 27.1 52.172 25.492 54.529 C 23.888 56.887 28.565 61.036 29.634 62.105 C 31.272 63.743 37.989 69.949 40.06 71.398" fill="url(#idFn0sS_Ea7g-203054946)"></path></g><g><defs><linearGradient id="idCml_O_Lo_g-203055000" x1="0.022034749753032157" x2="0.9779652502469678" y1="0" y2="1"><stop offset="0" stop-color="rgb(210,163,116)" stop-opacity="1"></stop><stop offset="1" stop-color="rgb(222,186,148)" stop-opacity="1"></stop></linearGradient></defs><path d="M 48.148 53.884 C 47.946 54.353 46.585 54.674 43.873 51.723 C 41.801 49.469 36.253 42.988 32.978 40.043 C 29.703 37.104 27.164 35.9 25.023 37.435 C 22.884 38.973 24.101 42.174 26.493 44.852 C 29.452 48.162 32.855 51.536 36.114 54.777 C 38.665 57.311 44.434 62.663 43.798 63.299" fill="url(#idCml_O_Lo_g-203055000)"></path></g><g><defs><linearGradient id="idmBryw4KNfg-203054989" x1="0.18072611755816492" x2="0.8192738824418351" y1="0" y2="1"><stop offset="0" stop-color="rgb(210,163,116)" stop-opacity="1"></stop><stop offset="1" stop-color="rgb(222,186,148)" stop-opacity="1"></stop></linearGradient></defs><path d="M 58.846 39.309 C 56.907 36.235 48.953 26.341 47.014 23.534 C 45.076 20.729 42.467 20.729 40.667 21.996 C 38.861 23.263 38.33 25.804 42.387 31.205 C 44.947 34.608 47.084 37.745 52.197 43.388 L 58.145 42.973 L 58.845 39.309 Z" fill="url(#idmBryw4KNfg-203054989)"></path></g><g><defs><linearGradient id="idjc0Xr3Eq_g-203054993" x1="0.12899755554397707" x2="0.8710024444560229" y1="0" y2="1"><stop offset="0" stop-color="rgb(210,163,116)" stop-opacity="1"></stop><stop offset="1" stop-color="rgb(222,186,148)" stop-opacity="1"></stop></linearGradient></defs><path d="M 51.289 45.06 C 50.422 44.191 42.738 35.082 40.997 33.128 C 37.737 29.468 33.609 21.631 28.682 25.123 C 26.093 26.957 27.494 29.616 28.234 30.687 C 28.968 31.756 38.526 42.786 39.463 43.723 C 40.4 44.66 48.351 53.416 48.153 53.883" fill="url(#idjc0Xr3Eq_g-203054993)"></path></g><g><defs><linearGradient id="idNdcS0bb0wg-965555450" x1="1" x2="0" y1="0.022360077600574013" y2="0.977639922399426"><stop offset="0" stop-color="rgba(240,196,146,0)" stop-opacity="0"></stop><stop offset="1" stop-color="rgb(210,163,116)" stop-opacity="1"></stop></linearGradient></defs><path d="M 36.119 54.786 C 38.526 57.179 43.798 62.076 43.853 63.156 C 44.612 61.968 43.222 58.446 41.752 57.208 C 33.265 50.056 25.059 38.53 24.017 38.875 C 23.569 40.551 24.703 42.856 26.498 44.862 C 29.452 48.167 32.86 51.546 36.12 54.786 Z" fill="url(#idNdcS0bb0wg-965555450)"></path></g><g><defs><linearGradient id="idzmO50k0zhg-965555449" x1="1" x2="0" y1="0.04228135991283588" y2="0.9577186400871641"><stop offset="0" stop-color="rgba(240,196,146,0)" stop-opacity="0"></stop><stop offset="1" stop-color="rgb(210,163,116)" stop-opacity="1"></stop></linearGradient></defs><path d="M 52.193 43.387 C 53.124 44.413 53.957 45.75 53.696 46.179 C 56.799 43.683 50.24 36.358 46.526 31.959 C 43.651 28.556 42.872 24.225 40.81 21.902 C 40.759 21.933 40.71 21.966 40.662 22 C 38.857 23.267 38.325 25.809 42.382 31.21 C 44.947 34.612 47.079 37.745 52.193 43.387 Z" fill="url(#idzmO50k0zhg-965555449)"></path></g><g><defs><linearGradient id="idUnhOmztIlg-965555443" x1="1" x2="0" y1="0.12912547020019466" y2="0.8708745297998053"><stop offset="0" stop-color="rgba(240,196,146,0)" stop-opacity="0"></stop><stop offset="1" stop-color="rgb(210,163,116)" stop-opacity="1"></stop></linearGradient></defs><path d="M 39.463 43.723 C 40.4 44.66 48.351 53.416 48.153 53.883 C 50.609 50.575 41.085 40.848 36.475 35.934 C 32.476 31.673 31.79 27.944 27.888 25.848 C 26.439 27.599 27.593 29.75 28.234 30.687 C 28.968 31.756 38.526 42.786 39.463 43.723 Z" fill="url(#idUnhOmztIlg-965555443)"></path></g><g><defs><linearGradient id="idkLDcMmMG0g-965555443" x1="1" x2="5.551115123125783e-17" y1="0.12903663365240114" y2="0.8709633663475989"><stop offset="0" stop-color="rgba(240,196,146,0)" stop-opacity="0"></stop><stop offset="1" stop-color="rgb(210,163,116)" stop-opacity="1"></stop></linearGradient></defs><path d="M 47.971 54.076 C 47.689 54.249 47.117 54.263 46.235 53.751 C 46.891 54.289 47.502 54.491 47.971 54.076 Z" fill="url(#idkLDcMmMG0g-965555443)"></path></g><path d="M 30.809 71.631 C 30.749 71.63 30.689 71.622 30.631 71.607 C 24.53 69.747 17.921 63.078 16.487 57.337 C 16.428 57.126 16.489 56.9 16.645 56.746 C 16.801 56.593 17.028 56.536 17.238 56.599 C 17.448 56.661 17.608 56.832 17.655 57.046 C 18.977 62.338 25.329 68.73 30.981 70.457 C 31.262 70.546 31.437 70.826 31.394 71.118 C 31.351 71.41 31.103 71.627 30.807 71.631 Z" fill="rgb(130, 211, 255)"></path><path d="M 33.712 79.201 C 33.666 79.201 33.62 79.196 33.575 79.187 C 28.525 78.013 22.661 74.24 17.483 68.839 C 12.64 63.788 9.503 58.417 9.301 54.821 C 9.283 54.489 9.536 54.204 9.868 54.184 C 10.2 54.166 10.484 54.42 10.504 54.751 C 10.687 58.022 13.77 63.226 18.351 68.005 C 23.371 73.243 29.023 76.889 33.851 78.013 C 34.176 78.086 34.374 78.412 34.3 78.734 C 34.237 79.008 33.993 79.202 33.712 79.201 Z M 59.58 26.543 C 59.307 26.543 59.068 26.359 58.998 26.095 C 58.149 22.884 54.309 18.272 50.807 17.364 C 50.486 17.279 50.292 16.952 50.372 16.63 C 50.458 16.309 50.785 16.116 51.107 16.196 C 55.053 17.217 59.21 22.189 60.163 25.784 C 60.246 26.106 60.054 26.434 59.733 26.519 C 59.684 26.537 59.632 26.545 59.58 26.543 Z M 67.165 27.614 C 66.89 27.612 66.652 27.426 66.583 27.161 C 64.325 18.281 55.896 11.356 51.087 10.494 C 50.76 10.434 50.544 10.12 50.604 9.793 C 50.664 9.466 50.977 9.249 51.305 9.309 C 56.552 10.251 65.345 17.389 67.756 26.863 C 67.804 27.045 67.764 27.238 67.648 27.386 C 67.531 27.534 67.352 27.618 67.165 27.614 Z" fill="rgb(130, 211, 255)"></path><g><defs><radialGradient id="idgkUsn_JmLg1617761116" cy="2.145539547203426" cx="3.958001227137573" r="0.9088120399504991" gradientTransform="translate(3.958001227137573, 2.145539547203426) scale(1 1) translate(-3.958001227137573, -2.145539547203426)"><stop offset="0" stop-color="rgba(222,186,148,0)" stop-opacity="0"></stop><stop offset="1" stop-color="rgb(210,163,116)" stop-opacity="1"></stop></radialGradient></defs><path d="M 78.73 32.023 C 80.772 31.658 81.132 31.891 80.767 31.515 C 79.771 31.146 78.709 31.018 78.163 31.018 C 76.023 31.018 70.543 33.76 70.543 40.976 C 70.543 43.782 69.74 46.323 66.869 46.323 C 65.735 46.323 64.551 45.707 63.412 44.778 C 68.457 50.368 72.417 45.104 73.019 41.494 C 73.621 37.884 72.742 33.103 78.73 32.023 Z" fill="url(#idgkUsn_JmLg1617761116)"></path></g><g><defs><linearGradient id="idNaHWJJrmYg112146649" x1="1" x2="0" y1="0.03001086537269293" y2="0.9699891346273071"><stop offset="0" stop-color="rgba(210,163,116,0)" stop-opacity="0"></stop><stop offset="1" stop-color="rgb(210,163,116)" stop-opacity="1"></stop></linearGradient></defs><path d="M 40.046 22.543 C 38.797 23.954 38.837 26.489 42.382 31.204 C 44.942 34.608 47.079 37.745 52.193 43.387 C 53.163 44.457 54.032 45.858 53.662 46.229 C 54.515 40.378 46.195 34.632 43.488 30.218 C 41.348 26.726 40.919 24.665 40.046 22.543 Z" fill="url(#idNaHWJJrmYg112146649)"></path></g><g><defs><linearGradient id="idh_JaCohrIg112146649" x1="1" x2="0" y1="0.04299519199142121" y2="0.9570048080085788"><stop offset="0" stop-color="rgba(210,163,116,0)" stop-opacity="0"></stop><stop offset="1" stop-color="rgb(210,163,116)" stop-opacity="1"></stop></linearGradient></defs><path d="M 39.463 43.723 C 40.4 44.661 48.351 53.416 48.153 53.883 C 49.908 52.631 48.711 50.683 45.998 47.971 C 40.441 42.411 32.702 34.939 29.59 28.788 C 29.294 28.207 28.752 27.777 28.106 27.693 C 26.429 27.476 27.672 29.873 28.234 30.692 C 28.968 31.757 38.526 42.786 39.463 43.724 Z" fill="url(#idh_JaCohrIg112146649)"></path></g><g><defs><linearGradient id="idvgA1Z6Wxqg112146655" x1="1" x2="0" y1="0.07404102608784507" y2="0.925958973912155"><stop offset="0" stop-color="rgba(210,163,116,0)" stop-opacity="0"></stop><stop offset="1" stop-color="rgb(210,163,116)" stop-opacity="1"></stop></linearGradient></defs><path d="M 26.498 44.857 C 29.457 48.167 32.86 51.542 36.12 54.782 C 38.669 57.316 44.44 62.668 43.804 63.304 C 47.379 60.295 30.769 49.41 24.013 38.869 C 23.569 40.547 24.703 42.85 26.498 44.856 Z" fill="url(#idvgA1Z6Wxqg112146655)"></path></g><g><defs><linearGradient id="idk4njdSqqxg1617761244" x1="0" x2="1" y1="0.09298256246394404" y2="0.907017437536056"><stop offset="0" stop-color="rgba(222,186,148,0)" stop-opacity="0"></stop><stop offset="1" stop-color="rgb(210,163,116)" stop-opacity="1"></stop></linearGradient></defs><path d="M 43.073 63.912 C 43.414 63.778 43.591 63.621 43.645 63.447 C 43.033 63.921 42.225 63.749 40.632 62.338 C 38.896 60.799 34.783 56.424 32.111 54.284 C 30.936 53.342 29.826 52.824 28.816 52.734 C 30.266 53.638 29.595 53.968 32.815 56.439 C 34.536 57.761 40.864 64.78 43.073 63.912 Z" fill="url(#idk4njdSqqxg1617761244)"></path></g><g><defs><linearGradient id="idlg8_KM9Wvg112146600" x1="0.17011252083892547" x2="0.8298874791610745" y1="0" y2="1"><stop offset="0" stop-color="rgba(210,163,116,0)" stop-opacity="0"></stop><stop offset="1" stop-color="rgb(210,163,116)" stop-opacity="1"></stop></linearGradient></defs><path d="M 38.862 47.866 C 41.209 50.722 45.786 55.442 47.843 54.135 C 47.275 54.328 45.983 54.017 43.873 51.718 C 41.801 49.464 36.253 42.983 32.978 40.039 C 30.325 37.656 28.155 36.413 26.291 36.848 C 31.726 38.643 36.637 45.163 38.861 47.866 Z" fill="url(#idlg8_KM9Wvg112146600)"></path></g><g><defs><linearGradient id="idY0ntKvvlag-965555248" x1="0" x2="1" y1="0.8768139741191335" y2="0.12318602588086647"><stop offset="0" stop-color="rgba(240,196,146,0)" stop-opacity="0"></stop><stop offset="1" stop-color="rgb(210,163,116)" stop-opacity="1"></stop></linearGradient></defs><path d="M 41.401 35.564 C 45.15 39.639 50.702 47.718 53.524 46.307 C 53.06 46.45 52.068 45.834 51.294 45.06 C 50.427 44.191 42.743 35.081 41.003 33.128 C 38.744 30.594 36.07 26.055 33.003 24.665 C 36.096 27.1 38.364 32.265 41.401 35.564 Z" fill="url(#idY0ntKvvlag-965555248)"></path></g><g><defs><linearGradient id="idkBxXg9c1Rg1617761251" x1="0.5906382820508477" x2="0.4093617179491523" y1="5.551115123125783e-17" y2="1"><stop offset="0" stop-color="rgba(222,186,148,0)" stop-opacity="0"></stop><stop offset="1" stop-color="rgb(210,163,116)" stop-opacity="1"></stop></linearGradient></defs><path d="M 63.407 44.784 C 61.657 43.354 60.019 41.173 58.845 39.309 C 56.907 36.236 48.952 26.341 47.014 23.535 C 46.422 22.682 45.77 22.085 45.096 21.71 C 45.998 23.007 46.506 24.857 48.548 27.146 C 51.822 30.82 56.098 37.439 57.573 39.712 C 59.042 41.983 61.415 46.777 63.407 44.784 Z" fill="url(#idkBxXg9c1Rg1617761251)"></path></g><g><defs><linearGradient id="idsdV6SfTEog-203055055" x1="0.7818058575864879" x2="0.2181941424135121" y1="0" y2="1"><stop offset="0" stop-color="rgb(210,163,116)" stop-opacity="1"></stop><stop offset="1" stop-color="rgb(222,186,148)" stop-opacity="1"></stop></linearGradient></defs><path d="M 74.129 77.406 C 72.911 74.447 71.135 72.647 68.565 74.337 C 61.558 78.95 53.495 77.397 43.389 69.223 C 34.374 61.933 29.713 56.72 25.33 54.835 C 24.279 57.233 28.614 61.08 29.639 62.107 C 31.277 63.743 37.994 69.949 40.066 71.398 C 43.605 73.87 50.693 83.7 60.049 83.7 C 65.271 83.695 70.311 81.061 74.128 77.406 Z" fill="url(#idsdV6SfTEog-203055055)"></path></g><g><defs><linearGradient id="idye18zd6ulg203054854" x1="0.749902652109813" x2="0.250097347890187" y1="1" y2="0"><stop offset="0" stop-color="rgb(210,163,116)" stop-opacity="1"></stop><stop offset="1" stop-color="rgb(222,186,148)" stop-opacity="1"></stop></linearGradient></defs><path d="M 78.626 45.726 C 78.759 39.841 83.035 37.035 83.035 34.095 C 83.035 33.227 82.586 32.595 81.945 32.132 C 82.729 34.42 80.866 36.453 78.089 39.91 C 75.08 43.653 74.415 49.469 76.486 55.284 C 78.557 61.1 75.953 69.12 71.743 71.66 C 67.53 74.2 61.937 85.362 45.919 72.75 L 45.909 72.74 C 44.933 71.833 43.966 71.029 42.985 70.422 C 36.219 66.229 32.366 62.461 29.452 59.294 C 28.88 58.673 27.341 56.28 25.506 57.069 C 26.425 59.147 28.895 61.361 29.634 62.105 C 31.271 63.743 37.988 69.949 40.06 71.398 C 40.332 71.586 40.622 71.817 40.933 72.084 C 41.012 72.154 41.096 72.223 41.179 72.296 L 41.243 72.355 C 41.298 72.404 41.348 72.448 41.401 72.498 C 41.412 72.509 41.426 72.518 41.436 72.533 C 43.537 74.442 46.431 77.604 49.978 80.074 C 50.292 80.294 50.609 80.508 50.93 80.716 C 50.935 80.721 50.94 80.721 50.944 80.725 C 51.265 80.927 51.586 81.125 51.916 81.312 C 51.921 81.312 51.921 81.318 51.925 81.318 C 54.382 82.727 57.099 83.7 60.038 83.7 C 70.864 83.7 80.89 72.404 80.89 64.113 C 80.9 55.822 78.469 52.674 78.626 45.726 Z" fill="url(#idye18zd6ulg203054854)"></path></g></svg>